<?xml version="1.0" encoding="UTF-8" standalone="no"?>
<!-- Created with Inkscape (http://www.inkscape.org/) -->

<svg
   width="106.19638"
   height="74.39901"
   viewBox="0 0 39.323589 27.549301"
   version="1.1"
   id="svg1"
   xml:space="preserve"
   inkscape:export-filename="services-office.svg"
   inkscape:export-xdpi="96"
   inkscape:export-ydpi="96"
   sodipodi:docname="services-bedroom.svg"
   xmlns:inkscape="http://www.inkscape.org/namespaces/inkscape"
   xmlns:sodipodi="http://sodipodi.sourceforge.net/DTD/sodipodi-0.dtd"
   xmlns="http://www.w3.org/2000/svg"
   xmlns:svg="http://www.w3.org/2000/svg"><sodipodi:namedview
     id="namedview1"
     pagecolor="#ffffff"
     bordercolor="#000000"
     borderopacity="0.25"
     inkscape:showpageshadow="2"
     inkscape:pageopacity="0.0"
     inkscape:pagecheckerboard="false"
     inkscape:deskcolor="#d1d1d1"
     inkscape:document-units="mm"
     showgrid="false"><inkscape:grid
       id="grid5"
       units="mm"
       originx="-21.801233"
       originy="-20.287292"
       spacingx="1.0596076"
       spacingy="1.0596076"
       empcolor="#0099e5"
       empopacity="0.30196078"
       color="#0099e5"
       opacity="0.14901961"
       empspacing="5"
       enabled="true"
       visible="false" /><inkscape:page
       x="0"
       y="0"
       width="39.323589"
       height="27.549301"
       id="page1"
       margin="0"
       bleed="0" /></sodipodi:namedview><defs
     id="defs1" /><g
     inkscape:label="Vrstva 1"
     inkscape:groupmode="layer"
     id="layer1"
     transform="translate(-23.567016,-27.349766)"><g
       id="g18"
       transform="translate(0.06790253,-0.20214558)"
       style="stroke-width:0.629787;stroke-dasharray:none"><path
         style="opacity:1;fill:none;fill-opacity:1;stroke:#c79b2b;stroke-width:0.629787;stroke-linecap:round;stroke-dasharray:none;stroke-opacity:1"
         d="M 24.343814,47.469104 V 43.649863 H 60.65511 v 3.819241 z"
         id="path14" /><path
         style="opacity:1;fill:none;fill-opacity:1;stroke:#c79b2b;stroke-width:0.629787;stroke-linecap:round;stroke-dasharray:none;stroke-opacity:1"
         d="m 25.455384,43.336342 c 0,0 -0.0335,-1.976692 0,-2.964187 0.06641,-1.957726 1.391681,-2.942821 2.736173,-2.964186 8.484042,-0.134822 20.638984,-0.05146 28.444799,0 1.47158,0.0097 3.020233,1.720884 3.049692,3.1922 0.01858,0.927973 0,2.907185 0,2.907185"
         id="path15"
         sodipodi:nodetypes="cssssc" /><path
         style="opacity:1;fill:none;fill-opacity:1;stroke:#c79b2b;stroke-width:0.629787;stroke-linecap:round;stroke-dasharray:none;stroke-opacity:1"
         d="m 28.476575,37.236957 v -7.895 c 0.05723,-1.027158 0.551362,-1.107691 1.054566,-1.168573 h 26.050647 c 0.636073,-0.0091 0.920718,0.333362 1.026066,0.855055 v 8.322525"
         id="path16"
         sodipodi:nodetypes="cccccc" /><path
         style="opacity:1;fill:none;fill-opacity:1;stroke:#c79b2b;stroke-width:0.629787;stroke-linecap:round;stroke-dasharray:none;stroke-opacity:1"
         d="m 53.928684,37.151452 c 0,0 0.02759,-1.927762 0,-2.935685 -0.01749,-0.638848 -0.786004,-1.281447 -1.425091,-1.282582 -2.714082,-0.0049 -5.124392,-0.143933 -7.43897,0 -0.651246,0.0405 -1.418925,0.6595 -1.453591,1.311083 -0.05416,1.018152 0,3.078194 0,3.078194"
         id="path17"
         sodipodi:nodetypes="cssssc" /><path
         style="fill:none;fill-opacity:1;stroke:#c79b2b;stroke-width:0.629787;stroke-linecap:round;stroke-dasharray:none;stroke-opacity:1"
         d="m 41.544403,37.138472 c 0,0 0.03535,-1.920847 0,-2.935686 -0.02225,-0.6387 -0.318532,-1.170817 -1.42509,-1.282581 0,0 -5.551921,-0.148577 -7.43897,0 -0.650493,0.05122 -1.399658,0.66081 -1.453592,1.311082 -0.09448,1.139075 0,3.078196 0,3.078196"
         id="path17-2"
         sodipodi:nodetypes="cscssc" /><path
         style="opacity:1;fill:none;fill-opacity:1;stroke:#c79b2b;stroke-width:0.629787;stroke-linecap:round;stroke-dasharray:none;stroke-opacity:1"
         d="m 25.968416,47.497607 v 3.847743 c 0.16151,0.437023 0.504658,0.176704 0.541534,0 0.197679,-0.947229 0.62704,-3.933249 0.62704,-3.933249"
         id="path18"
         sodipodi:nodetypes="ccsc" /><path
         style="fill:none;fill-opacity:1;stroke:#c79b2b;stroke-width:0.629787;stroke-linecap:round;stroke-dasharray:none;stroke-opacity:1"
         d="m 59.209822,47.571462 v 3.847743 c -0.161511,0.437023 -0.504658,0.176704 -0.541534,0 -0.197679,-0.947227 -0.627042,-3.933249 -0.627042,-3.933249"
         id="path18-0"
         sodipodi:nodetypes="ccsc" /></g></g></svg>
